# xmcd
#
# Track frame offsets: 
#        150
#        13381
#        28584
#        42608
#        56876
#        70980
#        85104
#        99352
#        111905
#        125862
#        140340
#        153850
#        168194
#        182916
#        196811
#        210528
#        224318
#        238174
#        252375
#        266316
#        279975
#        293878
#        308083
#
# Disc length: 4297 seconds
#
# Revision: 1
# Processed by: cddbd v1.5.2PL0 Copyright (c) Steve Scherf et al.
# Submitted via: ExactAudioCopyFreeDBPlugin 1.0
#
DISCID=5810c717
DTITLE=Verschiedene - Milestones Of Legends - Delta Blues - CD02 - Cha
DTITLE=rlie Patton
DYEAR=2018
DGENRE=Blues
TTITLE0=Charlie Patton - Down the Dirt Road Blues
TTITLE1=Charlie Patton - It Won't Be Long
TTITLE2=Charlie Patton - High Water Everywhere - Part I
TTITLE3=Charlie Patton - High Sheriff Blues
TTITLE4=Charlie Patton - Miswsissippie Bo Weavil Blues
TTITLE5=Charlie Patton - Lord I'm Discouraged
TTITLE6=Charlie Patton - Skake It and Break It
TTITLE7=Charlie Patton - Rattlesnake Blues
TTITLE8=Charlie Patton - Screamin' and Hollerin' the Blues
TTITLE9=Charlie Patton - A Spoonful of Blues
TTITLE10=Charlie Patton - Pony Blues
TTITLE11=Charlie Patton - Magnolia Blues
TTITLE12=Charlie Patton - Moon Going Down
TTITLE13=Charlie Patton - I'm Goin' Home
TTITLE14=Charlie Patton - Elder Green Blues5
TTITLE15=Charlie Patton - Jim Lee Blues - Part I
TTITLE16=Charlie Patton - Banty Rooster Blues
TTITLE17=Charlie Patton - Jersey Bull Blues
TTITLE18=Charlie Patton - I Shall Not Be Moved
TTITLE19=Charlie Patton - Going to Move to Alabama
TTITLE20=Charlie Patton - Pea Vine Blues
TTITLE21=Charlie Patton - Green River Blues
TTITLE22=Charlie Patton - Bird Nest Bound
EXTD=
EXTT0=
EXTT1=
EXTT2=
EXTT3=
EXTT4=
EXTT5=
EXTT6=
EXTT7=
EXTT8=
EXTT9=
EXTT10=
EXTT11=
EXTT12=
EXTT13=
EXTT14=
EXTT15=
EXTT16=
EXTT17=
EXTT18=
EXTT19=
EXTT20=
EXTT21=
EXTT22=
PLAYORDER=
